<svg xmlns="http://www.w3.org/2000/svg" viewBox="0 0 1024 1024" width="1024" height="1024">
  <defs>
    <linearGradient id="body" x1="0" y1="0" x2="0.3" y2="1">
      <stop offset="0" stop-color="#E0731F"/>
      <stop offset="0.55" stop-color="#C75B12"/>
      <stop offset="1" stop-color="#7A3009"/>
    </linearGradient>
    <linearGradient id="rod" x1="0" y1="770.0" x2="0" y2="1100.0" gradientUnits="userSpaceOnUse">
      <stop offset="0" stop-color="#999999" stop-opacity="0.85"/>
      <stop offset="0.5" stop-color="#737373" stop-opacity="0.5"/>
      <stop offset="1" stop-color="#595959" stop-opacity="0"/>
    </linearGradient>
    <filter id="drop" x="-30%" y="-30%" width="160%" height="160%">
      <feDropShadow dx="0" dy="14" stdDeviation="22" flood-color="#0E1116" flood-opacity="0.35"/>
    </filter>
    <clipPath id="clip"><path d="M 932.00 512.00 L 931.94 609.82 L 931.77 641.05 L 931.48 663.74 L 931.08 682.19 L 930.56 698.01 L 929.92 711.98 L 929.17 724.57 L 928.30 736.08 L 927.32 746.71 L 926.22 756.60 L 924.99 765.86 L 923.65 774.57 L 922.19 782.80 L 920.61 790.60 L 918.91 798.01 L 917.08 805.07 L 915.13 811.81 L 913.05 818.24 L 910.85 824.40 L 908.52 830.30 L 906.05 835.95 L 903.46 841.38 L 900.73 846.58 L 897.86 851.58 L 894.86 856.37 L 891.71 860.98 L 888.42 865.40 L 884.97 869.65 L 881.38 873.72 L 877.63 877.63 L 873.72 881.38 L 869.65 884.97 L 865.40 888.42 L 860.98 891.71 L 856.37 894.86 L 851.58 897.86 L 846.58 900.73 L 841.38 903.46 L 835.95 906.05 L 830.30 908.52 L 824.40 910.85 L 818.24 913.05 L 811.81 915.13 L 805.07 917.08 L 798.01 918.91 L 790.60 920.61 L 782.80 922.19 L 774.57 923.65 L 765.86 924.99 L 756.60 926.22 L 746.71 927.32 L 736.08 928.30 L 724.57 929.17 L 711.98 929.92 L 698.01 930.56 L 682.19 931.08 L 663.74 931.48 L 641.05 931.77 L 609.82 931.94 L 512.00 932.00 L 414.18 931.94 L 382.95 931.77 L 360.26 931.48 L 341.81 931.08 L 325.99 930.56 L 312.02 929.92 L 299.43 929.17 L 287.92 928.30 L 277.29 927.32 L 267.40 926.22 L 258.14 924.99 L 249.43 923.65 L 241.20 922.19 L 233.40 920.61 L 225.99 918.91 L 218.93 917.08 L 212.19 915.13 L 205.76 913.05 L 199.60 910.85 L 193.70 908.52 L 188.05 906.05 L 182.62 903.46 L 177.42 900.73 L 172.42 897.86 L 167.63 894.86 L 163.02 891.71 L 158.60 888.42 L 154.35 884.97 L 150.28 881.38 L 146.37 877.63 L 142.62 873.72 L 139.03 869.65 L 135.58 865.40 L 132.29 860.98 L 129.14 856.37 L 126.14 851.58 L 123.27 846.58 L 120.54 841.38 L 117.95 835.95 L 115.48 830.30 L 113.15 824.40 L 110.95 818.24 L 108.87 811.81 L 106.92 805.07 L 105.09 798.01 L 103.39 790.60 L 101.81 782.80 L 100.35 774.57 L 99.01 765.86 L 97.78 756.60 L 96.68 746.71 L 95.70 736.08 L 94.83 724.57 L 94.08 711.98 L 93.44 698.01 L 92.92 682.19 L 92.52 663.74 L 92.23 641.05 L 92.06 609.82 L 92.00 512.00 L 92.06 414.18 L 92.23 382.95 L 92.52 360.26 L 92.92 341.81 L 93.44 325.99 L 94.08 312.02 L 94.83 299.43 L 95.70 287.92 L 96.68 277.29 L 97.78 267.40 L 99.01 258.14 L 100.35 249.43 L 101.81 241.20 L 103.39 233.40 L 105.09 225.99 L 106.92 218.93 L 108.87 212.19 L 110.95 205.76 L 113.15 199.60 L 115.48 193.70 L 117.95 188.05 L 120.54 182.62 L 123.27 177.42 L 126.14 172.42 L 129.14 167.63 L 132.29 163.02 L 135.58 158.60 L 139.03 154.35 L 142.62 150.28 L 146.37 146.37 L 150.28 142.62 L 154.35 139.03 L 158.60 135.58 L 163.02 132.29 L 167.63 129.14 L 172.42 126.14 L 177.42 123.27 L 182.62 120.54 L 188.05 117.95 L 193.70 115.48 L 199.60 113.15 L 205.76 110.95 L 212.19 108.87 L 218.93 106.92 L 225.99 105.09 L 233.40 103.39 L 241.20 101.81 L 249.43 100.35 L 258.14 99.01 L 267.40 97.78 L 277.29 96.68 L 287.92 95.70 L 299.43 94.83 L 312.02 94.08 L 325.99 93.44 L 341.81 92.92 L 360.26 92.52 L 382.95 92.23 L 414.18 92.06 L 512.00 92.00 L 609.82 92.06 L 641.05 92.23 L 663.74 92.52 L 682.19 92.92 L 698.01 93.44 L 711.98 94.08 L 724.57 94.83 L 736.08 95.70 L 746.71 96.68 L 756.60 97.78 L 765.86 99.01 L 774.57 100.35 L 782.80 101.81 L 790.60 103.39 L 798.01 105.09 L 805.07 106.92 L 811.81 108.87 L 818.24 110.95 L 824.40 113.15 L 830.30 115.48 L 835.95 117.95 L 841.38 120.54 L 846.58 123.27 L 851.58 126.14 L 856.37 129.14 L 860.98 132.29 L 865.40 135.58 L 869.65 139.03 L 873.72 142.62 L 877.63 146.37 L 881.38 150.28 L 884.97 154.35 L 888.42 158.60 L 891.71 163.02 L 894.86 167.63 L 897.86 172.42 L 900.73 177.42 L 903.46 182.62 L 906.05 188.05 L 908.52 193.70 L 910.85 199.60 L 913.05 205.76 L 915.13 212.19 L 917.08 218.93 L 918.91 225.99 L 920.61 233.40 L 922.19 241.20 L 923.65 249.43 L 924.99 258.14 L 926.22 267.40 L 927.32 277.29 L 928.30 287.92 L 929.17 299.43 L 929.92 312.02 L 930.56 325.99 L 931.08 341.81 L 931.48 360.26 L 931.77 382.95 L 931.94 414.18 L 932.00 512.00 Z"/></clipPath>
  </defs>

  <path d="M 932.00 512.00 L 931.94 609.82 L 931.77 641.05 L 931.48 663.74 L 931.08 682.19 L 930.56 698.01 L 929.92 711.98 L 929.17 724.57 L 928.30 736.08 L 927.32 746.71 L 926.22 756.60 L 924.99 765.86 L 923.65 774.57 L 922.19 782.80 L 920.61 790.60 L 918.91 798.01 L 917.08 805.07 L 915.13 811.81 L 913.05 818.24 L 910.85 824.40 L 908.52 830.30 L 906.05 835.95 L 903.46 841.38 L 900.73 846.58 L 897.86 851.58 L 894.86 856.37 L 891.71 860.98 L 888.42 865.40 L 884.97 869.65 L 881.38 873.72 L 877.63 877.63 L 873.72 881.38 L 869.65 884.97 L 865.40 888.42 L 860.98 891.71 L 856.37 894.86 L 851.58 897.86 L 846.58 900.73 L 841.38 903.46 L 835.95 906.05 L 830.30 908.52 L 824.40 910.85 L 818.24 913.05 L 811.81 915.13 L 805.07 917.08 L 798.01 918.91 L 790.60 920.61 L 782.80 922.19 L 774.57 923.65 L 765.86 924.99 L 756.60 926.22 L 746.71 927.32 L 736.08 928.30 L 724.57 929.17 L 711.98 929.92 L 698.01 930.56 L 682.19 931.08 L 663.74 931.48 L 641.05 931.77 L 609.82 931.94 L 512.00 932.00 L 414.18 931.94 L 382.95 931.77 L 360.26 931.48 L 341.81 931.08 L 325.99 930.56 L 312.02 929.92 L 299.43 929.17 L 287.92 928.30 L 277.29 927.32 L 267.40 926.22 L 258.14 924.99 L 249.43 923.65 L 241.20 922.19 L 233.40 920.61 L 225.99 918.91 L 218.93 917.08 L 212.19 915.13 L 205.76 913.05 L 199.60 910.85 L 193.70 908.52 L 188.05 906.05 L 182.62 903.46 L 177.42 900.73 L 172.42 897.86 L 167.63 894.86 L 163.02 891.71 L 158.60 888.42 L 154.35 884.97 L 150.28 881.38 L 146.37 877.63 L 142.62 873.72 L 139.03 869.65 L 135.58 865.40 L 132.29 860.98 L 129.14 856.37 L 126.14 851.58 L 123.27 846.58 L 120.54 841.38 L 117.95 835.95 L 115.48 830.30 L 113.15 824.40 L 110.95 818.24 L 108.87 811.81 L 106.92 805.07 L 105.09 798.01 L 103.39 790.60 L 101.81 782.80 L 100.35 774.57 L 99.01 765.86 L 97.78 756.60 L 96.68 746.71 L 95.70 736.08 L 94.83 724.57 L 94.08 711.98 L 93.44 698.01 L 92.92 682.19 L 92.52 663.74 L 92.23 641.05 L 92.06 609.82 L 92.00 512.00 L 92.06 414.18 L 92.23 382.95 L 92.52 360.26 L 92.92 341.81 L 93.44 325.99 L 94.08 312.02 L 94.83 299.43 L 95.70 287.92 L 96.68 277.29 L 97.78 267.40 L 99.01 258.14 L 100.35 249.43 L 101.81 241.20 L 103.39 233.40 L 105.09 225.99 L 106.92 218.93 L 108.87 212.19 L 110.95 205.76 L 113.15 199.60 L 115.48 193.70 L 117.95 188.05 L 120.54 182.62 L 123.27 177.42 L 126.14 172.42 L 129.14 167.63 L 132.29 163.02 L 135.58 158.60 L 139.03 154.35 L 142.62 150.28 L 146.37 146.37 L 150.28 142.62 L 154.35 139.03 L 158.60 135.58 L 163.02 132.29 L 167.63 129.14 L 172.42 126.14 L 177.42 123.27 L 182.62 120.54 L 188.05 117.95 L 193.70 115.48 L 199.60 113.15 L 205.76 110.95 L 212.19 108.87 L 218.93 106.92 L 225.99 105.09 L 233.40 103.39 L 241.20 101.81 L 249.43 100.35 L 258.14 99.01 L 267.40 97.78 L 277.29 96.68 L 287.92 95.70 L 299.43 94.83 L 312.02 94.08 L 325.99 93.44 L 341.81 92.92 L 360.26 92.52 L 382.95 92.23 L 414.18 92.06 L 512.00 92.00 L 609.82 92.06 L 641.05 92.23 L 663.74 92.52 L 682.19 92.92 L 698.01 93.44 L 711.98 94.08 L 724.57 94.83 L 736.08 95.70 L 746.71 96.68 L 756.60 97.78 L 765.86 99.01 L 774.57 100.35 L 782.80 101.81 L 790.60 103.39 L 798.01 105.09 L 805.07 106.92 L 811.81 108.87 L 818.24 110.95 L 824.40 113.15 L 830.30 115.48 L 835.95 117.95 L 841.38 120.54 L 846.58 123.27 L 851.58 126.14 L 856.37 129.14 L 860.98 132.29 L 865.40 135.58 L 869.65 139.03 L 873.72 142.62 L 877.63 146.37 L 881.38 150.28 L 884.97 154.35 L 888.42 158.60 L 891.71 163.02 L 894.86 167.63 L 897.86 172.42 L 900.73 177.42 L 903.46 182.62 L 906.05 188.05 L 908.52 193.70 L 910.85 199.60 L 913.05 205.76 L 915.13 212.19 L 917.08 218.93 L 918.91 225.99 L 920.61 233.40 L 922.19 241.20 L 923.65 249.43 L 924.99 258.14 L 926.22 267.40 L 927.32 277.29 L 928.30 287.92 L 929.17 299.43 L 929.92 312.02 L 930.56 325.99 L 931.08 341.81 L 931.48 360.26 L 931.77 382.95 L 931.94 414.18 L 932.00 512.00 Z" fill="url(#body)"/>

  <g clip-path="url(#clip)">
    <g transform="rotate(-20 512 512)">
    <!-- shadow rod, same as in-app drawRod: cuff-width taper + round cap, fading grey -->
    <path d="M 446.7 770.0 L 484.6 1100.0 A 46.3 46.3 0 0 0 577.1 1100.0 L 615.0 770.0 Z" fill="url(#rod)"/>

    <!-- glove, actual app artwork -->
    <g filter="url(#drop)">
      <g transform="translate(378.6 312.0) scale(3.3998) translate(-21.341 -939.911)" fill="none" stroke="none">
        <path d="m89.471 1065.9c3.7268 6.1263-0.48379 10.049-6.16 12.947-8.0302 4.0988-27.898 2.1019-34.7-2.0136-6.2427-3.777-9.0128-9.3495-6.0403-14.184" fill="#FFFFFF" stroke="#0E1116" stroke-width="4.0614" stroke-linecap="round" stroke-linejoin="round"/>
        <path d="m21.354 1021c-0.85728 15.682 13.892 40.298 31.364 46.018 9.0217 2.9538 29.326 3.8464 36.494-1.431 12.273-9.0365 18.48-20.686 21.285-35.088 0.99446-5.1051 1.707-10.986 0.95737-15.702-3.1898-20.064-14.951-20.048-19.514-20.76-2.7272-8.7246-12.699-15.044-26.068-12.391-0.1029-10.746 0.22553-17.365 1.1122-27.536 1.4832-17.013-27.986-20.845-26.491-0.0121 1.0183 14.187 0.02688 25.675-2.4993 39-3.4496 1.0381-15.746 11.529-16.641 27.901z" fill="#FFFFFF" stroke="#0E1116" stroke-width="4.0614" stroke-linecap="round" stroke-linejoin="round"/>
        <path d="m63.838 981.04c0.0308 10.253 1.2148 18.225 7.2258 26.105-2.5091-6.5752-3.3692-19.666-3.1766-27.939z" fill="#0E1116"/>
        <path d="m93.471 992.23-3.8091 1.4862c1.929 5.5768 4.0509 11.842 7.1137 15.183-1.0804-2.6051-2.0771-11.978-3.3046-16.669z" fill="#0E1116"/>
        <path d="m36.249 991.71c-1.7026 12.092-6.1967 31.682-4.8107 38.213 1.185-3.9899 8.356-33.636 9.1333-39.703z" fill="#0E1116"/>
        <path d="m79.642 1058.3c4.0369-9.6783 3.976-12.465 5.1951-17.405" fill="none" stroke="#0E1116" stroke-width="4.0614" stroke-linecap="round"/>
        <path d="m70.26 1059c1.6922-11.475 1.4242-17.152 1.8555-24.898" fill="none" stroke="#0E1116" stroke-width="4.0614" stroke-linecap="round"/>
        <path d="m59.041 1059.5c0.0971-7.9806-0.59887-11.754-1.049-16.831" fill="none" stroke="#0E1116" stroke-width="4.0614" stroke-linecap="round"/>
      </g>
    </g>

    <!-- poke burst at the fingertip: app's .sparkle style, halo behind grey core -->
    <g fill="none" stroke-linecap="round">
      <path d="M 481.6 261.0 L 481.6 162.0 M 507.1 267.8 L 528.1 231.5 M 525.8 286.5 L 611.5 237.0 M 532.6 312.0 L 574.6 312.0 M 525.8 337.5 L 611.5 387.0 M 507.1 356.2 L 528.1 392.5 M 481.6 363.0 L 481.6 462.0 M 456.1 356.2 L 435.1 392.5 M 437.4 337.5 L 351.7 387.0 M 430.6 312.0 L 388.6 312.0 M 437.4 286.5 L 351.7 237.0 M 456.1 267.8 L 435.1 231.5" stroke="rgba(242,242,242,0.9)" stroke-width="23"/>
      <path d="M 481.6 261.0 L 481.6 162.0 M 507.1 267.8 L 528.1 231.5 M 525.8 286.5 L 611.5 237.0 M 532.6 312.0 L 574.6 312.0 M 525.8 337.5 L 611.5 387.0 M 507.1 356.2 L 528.1 392.5 M 481.6 363.0 L 481.6 462.0 M 456.1 356.2 L 435.1 392.5 M 437.4 337.5 L 351.7 387.0 M 430.6 312.0 L 388.6 312.0 M 437.4 286.5 L 351.7 237.0 M 456.1 267.8 L 435.1 231.5" stroke="#6B6B6B" stroke-width="15"/>
    </g>
    </g>
  </g>
</svg>
